<svg xmlns="http://www.w3.org/2000/svg" width="20" height="18" viewBox="0 0 18 18">
			        <g data-name="Group 2198" transform="translate(-172 -287)">
				     <circle data-name="Ellipse 103" cx="9" cy="9" r="9" transform="translate(173 287)" fill="#12a26c"></circle>
				     <path data-name="Path 1044" d="M5.71,1.679a3.286,3.286,0,0,0-4.728,0A3.762,3.762,0,0,0,.714,6.407L3.39,10.243,6.067,6.407A4.036,4.036,0,0,0,5.71,1.679ZM3.39,5.158a1.071,1.071,0,0,1,0-2.141A.984.984,0,0,1,4.461,4.087,1.085,1.085,0,0,1,3.39,5.158Zm0,0" transform="translate(178.59 291.182)" fill="#fff"></path>
			        </g>
			       </svg>